<?xml version="1.0" encoding="UTF-8"?>
<!DOCTYPE svg
PUBLIC "-//W3C//DTD SVG 1.1//EN"
       "http://www.w3.org/Graphics/SVG/1.1/DTD/svg11.dtd">
<svg viewBox="45 5 751 455" width="706px" height="450px" xmlns="http://www.w3.org/2000/svg" version="1.1">
   <line x1="270" y1="310" x2="260" y2="310" style="stroke:#333;stroke-width:1;"/>
   <line x1="160" y1="250" x2="150" y2="250" style="stroke:#333;stroke-width:1;"/>
   <line x1="260" y1="310" x2="160" y2="250" style="stroke:#333;stroke-width:1;"/>
   <line x1="262.5" y1="310" x2="266.03553390593" y2="313.53553390593" style="stroke:#333;stroke-width:2;"/>
   <line x1="262.5" y1="310" x2="266.03553390593" y2="306.46446609407" style="stroke:#333;stroke-width:2;"/>
   <line x1="155" y1="250" x2="158.53553390593" y2="253.53553390593" style="stroke:#333;stroke-width:2;"/>
   <line x1="155" y1="250" x2="158.53553390593" y2="246.46446609407" style="stroke:#333;stroke-width:2;"/>
   <line x1="540" y1="290" x2="530" y2="290" style="stroke:#0bf;stroke-width:1;"/>
   <line x1="384" y1="290" x2="374" y2="290" style="stroke:#0bf;stroke-width:1;"/>
   <line x1="530" y1="290" x2="384" y2="290" style="stroke:#0bf;stroke-width:1;"/>
   <line x1="532.5" y1="290" x2="536.03553390593" y2="293.53553390593" style="stroke:#0bf;stroke-width:2;"/>
   <line x1="532.5" y1="290" x2="536.03553390593" y2="286.46446609407" style="stroke:#0bf;stroke-width:2;"/>
   <line x1="379" y1="290" x2="382.53553390593" y2="293.53553390593" style="stroke:#0bf;stroke-width:2;"/>
   <line x1="379" y1="290" x2="382.53553390593" y2="286.46446609407" style="stroke:#0bf;stroke-width:2;"/>
   <line x1="540" y1="310" x2="530" y2="310" style="stroke:#cb0;stroke-width:1;"/>
   <line x1="448" y1="100" x2="438" y2="100" style="stroke:#cb0;stroke-width:1;"/>
   <line x1="530" y1="310" x2="448" y2="100" style="stroke:#cb0;stroke-width:1;"/>
   <line x1="532.5" y1="310" x2="536.03553390593" y2="313.53553390593" style="stroke:#cb0;stroke-width:2;"/>
   <line x1="532.5" y1="310" x2="536.03553390593" y2="306.46446609407" style="stroke:#cb0;stroke-width:2;"/>
   <line x1="443" y1="100" x2="446.53553390593" y2="103.53553390593" style="stroke:#cb0;stroke-width:2;"/>
   <line x1="443" y1="100" x2="446.53553390593" y2="96.464466094067" style="stroke:#cb0;stroke-width:2;"/>
   <line x1="570" y1="60" x2="560" y2="60" style="stroke:#c00;stroke-width:1;"/>
   <line x1="448" y1="100" x2="438" y2="100" style="stroke:#c00;stroke-width:1;"/>
   <line x1="560" y1="60" x2="448" y2="100" style="stroke:#c00;stroke-width:1;"/>
   <line x1="562.5" y1="60" x2="566.03553390593" y2="63.535533905933" style="stroke:#c00;stroke-width:2;"/>
   <line x1="562.5" y1="60" x2="566.03553390593" y2="56.464466094067" style="stroke:#c00;stroke-width:2;"/>
   <line x1="443" y1="100" x2="446.53553390593" y2="103.53553390593" style="stroke:#c00;stroke-width:2;"/>
   <line x1="443" y1="100" x2="446.53553390593" y2="96.464466094067" style="stroke:#c00;stroke-width:2;"/>
   <line x1="215" y1="140" x2="225" y2="140" style="stroke:#0bf;stroke-width:1;"/>
   <line x1="350" y1="100" x2="360" y2="100" style="stroke:#0bf;stroke-width:1;"/>
   <line x1="225" y1="140" x2="350" y2="100" style="stroke:#0bf;stroke-width:1;"/>
   <line x1="222.5" y1="140" x2="218.96446609407" y2="143.53553390593" style="stroke:#0bf;stroke-width:2;"/>
   <line x1="222.5" y1="140" x2="218.96446609407" y2="136.46446609407" style="stroke:#0bf;stroke-width:2;"/>
   <line x1="355" y1="100" x2="351.46446609407" y2="103.53553390593" style="stroke:#0bf;stroke-width:2;"/>
   <line x1="355" y1="100" x2="351.46446609407" y2="96.464466094067" style="stroke:#0bf;stroke-width:2;"/>
   <line x1="80" y1="160" x2="70" y2="160" style="stroke:#0bf;stroke-width:1;"/>
   <line x1="70" y1="50" x2="80" y2="50" style="stroke:#0bf;stroke-width:1;"/>
   <line x1="70" y1="160" x2="70" y2="50" style="stroke:#0bf;stroke-width:1;"/>
   <line x1="72.5" y1="160" x2="76.035533905933" y2="163.53553390593" style="stroke:#0bf;stroke-width:2;"/>
   <line x1="72.5" y1="160" x2="76.035533905933" y2="156.46446609407" style="stroke:#0bf;stroke-width:2;"/>
   <line x1="75" y1="50" x2="71.464466094067" y2="53.535533905933" style="stroke:#0bf;stroke-width:2;"/>
   <line x1="75" y1="50" x2="71.464466094067" y2="46.464466094067" style="stroke:#0bf;stroke-width:2;"/>
   <rect width="104" height="20" x="270" y="260" style="fill:#007;stroke:black;"/>
   <text width="104" height="20" x="275" y="274" style="fill:#fff;" font-family="Arial" font-size="16px"> carrinho</text>
   <rect width="104" height="20" x="270" y="280" style="fill:#aea;stroke:black;"/>
   <text width="104" height="20" x="275" y="294" style="fill:black;" font-family="Arial" font-size="16px">id</text>
   <rect width="104" height="20" x="270" y="300" style="fill:none;stroke:black;"/>
   <text width="104" height="20" x="275" y="314" style="fill:black;" font-family="Arial" font-size="16px">id_comprador</text>
   <rect width="104" height="20" x="270" y="320" style="fill:none;stroke:black;"/>
   <text width="104" height="20" x="275" y="334" style="fill:black;" font-family="Arial" font-size="16px">dt_hr_criacao</text>
   <rect width="104" height="20" x="270" y="340" style="fill:none;stroke:black;"/>
   <text width="104" height="20" x="275" y="354" style="fill:black;" font-family="Arial" font-size="16px">status</text>
   <rect width="127" height="20" x="540" y="260" style="fill:#007;stroke:black;"/>
   <text width="127" height="20" x="545" y="274" style="fill:#fff;" font-family="Arial" font-size="16px"> carrinho_produto</text>
   <rect width="127" height="20" x="540" y="280" style="fill:none;stroke:black;"/>
   <text width="127" height="20" x="545" y="294" style="fill:black;" font-family="Arial" font-size="16px">id_carrinho</text>
   <rect width="127" height="20" x="540" y="300" style="fill:none;stroke:black;"/>
   <text width="127" height="20" x="545" y="314" style="fill:black;" font-family="Arial" font-size="16px">id_produto</text>
   <rect width="127" height="20" x="540" y="320" style="fill:none;stroke:black;"/>
   <text width="127" height="20" x="545" y="334" style="fill:black;" font-family="Arial" font-size="16px">qtd</text>
   <rect width="71" height="20" x="80" y="20" style="fill:#007;stroke:black;"/>
   <text width="71" height="20" x="85" y="34" style="fill:#fff;" font-family="Arial" font-size="16px"> categoria</text>
   <rect width="71" height="20" x="80" y="40" style="fill:#aea;stroke:black;"/>
   <text width="71" height="20" x="85" y="54" style="fill:black;" font-family="Arial" font-size="16px">id</text>
   <rect width="71" height="20" x="80" y="60" style="fill:none;stroke:black;"/>
   <text width="71" height="20" x="85" y="74" style="fill:black;" font-family="Arial" font-size="16px">nome</text>
   <rect width="90" height="20" x="60" y="220" style="fill:#007;stroke:black;"/>
   <text width="90" height="20" x="65" y="234" style="fill:#fff;" font-family="Arial" font-size="16px"> comprador</text>
   <rect width="90" height="20" x="60" y="240" style="fill:#aea;stroke:black;"/>
   <text width="90" height="20" x="65" y="254" style="fill:black;" font-family="Arial" font-size="16px">id</text>
   <rect width="90" height="20" x="60" y="260" style="fill:none;stroke:black;"/>
   <text width="90" height="20" x="65" y="274" style="fill:black;" font-family="Arial" font-size="16px">cpf</text>
   <rect width="90" height="20" x="60" y="280" style="fill:none;stroke:black;"/>
   <text width="90" height="20" x="65" y="294" style="fill:black;" font-family="Arial" font-size="16px">nome</text>
   <rect width="90" height="20" x="60" y="300" style="fill:none;stroke:black;"/>
   <text width="90" height="20" x="65" y="314" style="fill:black;" font-family="Arial" font-size="16px">sobrenome</text>
   <rect width="90" height="20" x="60" y="320" style="fill:none;stroke:black;"/>
   <text width="90" height="20" x="65" y="334" style="fill:black;" font-family="Arial" font-size="16px">telefone</text>
   <rect width="90" height="20" x="60" y="340" style="fill:none;stroke:black;"/>
   <text width="90" height="20" x="65" y="354" style="fill:black;" font-family="Arial" font-size="16px">email</text>
   <rect width="90" height="20" x="60" y="360" style="fill:none;stroke:black;"/>
   <text width="90" height="20" x="65" y="374" style="fill:black;" font-family="Arial" font-size="16px">logradouro</text>
   <rect width="90" height="20" x="60" y="380" style="fill:none;stroke:black;"/>
   <text width="90" height="20" x="65" y="394" style="fill:black;" font-family="Arial" font-size="16px">numero</text>
   <rect width="90" height="20" x="60" y="400" style="fill:none;stroke:black;"/>
   <text width="90" height="20" x="65" y="414" style="fill:black;" font-family="Arial" font-size="16px">cidade</text>
   <rect width="90" height="20" x="60" y="420" style="fill:none;stroke:black;"/>
   <text width="90" height="20" x="65" y="434" style="fill:black;" font-family="Arial" font-size="16px">uf</text>
   <rect width="78" height="20" x="360" y="70" style="fill:#007;stroke:black;"/>
   <text width="78" height="20" x="365" y="84" style="fill:#fff;" font-family="Arial" font-size="16px"> produto</text>
   <rect width="78" height="20" x="360" y="90" style="fill:#aea;stroke:black;"/>
   <text width="78" height="20" x="365" y="104" style="fill:black;" font-family="Arial" font-size="16px">id</text>
   <rect width="78" height="20" x="360" y="110" style="fill:none;stroke:black;"/>
   <text width="78" height="20" x="365" y="124" style="fill:black;" font-family="Arial" font-size="16px">nome</text>
   <rect width="78" height="20" x="360" y="130" style="fill:none;stroke:black;"/>
   <text width="78" height="20" x="365" y="144" style="fill:black;" font-family="Arial" font-size="16px">descricao</text>
   <rect width="78" height="20" x="360" y="150" style="fill:none;stroke:black;"/>
   <text width="78" height="20" x="365" y="164" style="fill:black;" font-family="Arial" font-size="16px">imagem</text>
   <rect width="78" height="20" x="360" y="170" style="fill:none;stroke:black;"/>
   <text width="78" height="20" x="365" y="184" style="fill:black;" font-family="Arial" font-size="16px">preco</text>
   <rect width="166" height="20" x="570" y="30" style="fill:#007;stroke:black;"/>
   <text width="166" height="20" x="575" y="44" style="fill:#fff;" font-family="Arial" font-size="16px"> produto_caracteristica</text>
   <rect width="166" height="20" x="570" y="50" style="fill:none;stroke:black;"/>
   <text width="166" height="20" x="575" y="64" style="fill:black;" font-family="Arial" font-size="16px">id_produto</text>
   <rect width="166" height="20" x="570" y="70" style="fill:none;stroke:black;"/>
   <text width="166" height="20" x="575" y="84" style="fill:black;" font-family="Arial" font-size="16px">tag</text>
   <rect width="166" height="20" x="570" y="90" style="fill:none;stroke:black;"/>
   <text width="166" height="20" x="575" y="104" style="fill:black;" font-family="Arial" font-size="16px">valor</text>
   <rect width="135" height="20" x="80" y="110" style="fill:#007;stroke:black;"/>
   <text width="135" height="20" x="85" y="124" style="fill:#fff;" font-family="Arial" font-size="16px"> produto_categoria</text>
   <rect width="135" height="20" x="80" y="130" style="fill:#aea;stroke:black;"/>
   <text width="135" height="20" x="85" y="144" style="fill:black;" font-family="Arial" font-size="16px">id_produto</text>
   <rect width="135" height="20" x="80" y="150" style="fill:#aea;stroke:black;"/>
   <text width="135" height="20" x="85" y="164" style="fill:black;" font-family="Arial" font-size="16px">id_categoria</text>
</svg>
